<?xml version="1.0" encoding="iso-8859-1"?>
<!-- Uploaded to: SVG Repo, www.svgrepo.com, Generator: SVG Repo Mixer Tools -->
<svg fill="#fff" height="800px" width="800px" version="1.1" id="Layer_1" xmlns="http://www.w3.org/2000/svg" xmlns:xlink="http://www.w3.org/1999/xlink" 
	 viewBox="0 0 512 512" xml:space="preserve">
<g>
	<g>
		<path d="M369.778,44.247V0h-37.926v44.247H180.148V0h-37.926v44.247H22.123V512h467.753V44.247H369.778z M451.951,474.074H60.049
			V208.593h391.901V474.074z M451.951,170.667H60.049V82.173h82.173v21.258c-3.922,4.455-6.321,10.28-6.321,16.668
			c0,13.942,11.342,25.284,25.284,25.284s25.284-11.342,25.284-25.284c0-6.388-2.399-12.212-6.321-16.668V82.173h151.704v21.258
			c-3.922,4.455-6.321,10.28-6.321,16.668c0,13.942,11.342,25.284,25.284,25.284s25.284-11.342,25.284-25.284
			c0-6.388-2.399-12.212-6.321-16.668V82.173h82.173V170.667z"/>
	</g>
</g>
<g>
	<g>
		<path d="M97.975,246.519v189.63h316.049v-189.63H97.975z M228.609,284.444h54.781v37.926h-54.781V284.444z M135.901,284.444
			h54.781v37.926h-54.781V284.444z M190.683,398.222h-54.781v-37.926h54.781V398.222z M283.39,398.222h-54.782v-37.926h54.782
			V398.222z M376.099,398.222h-54.783v-37.926h54.783V398.222z M376.099,322.37h-54.783v-37.926h54.783V322.37z"/>
	</g>
</g>
</svg>